<svg width="50" height="38" xmlns="http://www.w3.org/2000/svg" xmlns:xlink="http://www.w3.org/1999/xlink" viewBox="0 0 448.27 517.72"><defs><style>.a{fill:none;}.b{clip-path:url(#a);}.c{fill:#3dd6e2;stroke-width:7px;}.c,.j{stroke:#00a99d;}.c,.d,.e,.f,.g,.h,.i,.j{stroke-miterlimit:10;}.d,.g{fill:#29abe2;}.d,.e,.f,.g,.h,.i{stroke:#fff;}.d,.e{stroke-width:5.44px;}.e,.f,.h{fill:#00a99d;}.f,.g,.i{stroke-width:8px;}.h{stroke-width:6px;}.i{fill:#2e3192;}.j{fill:#fff;stroke-width:5px;}</style><clipPath id="a" transform="translate(-794.5 -298.5)"><path class="a" d="M1231,518.5a215.71,215.71,0,0,1-56,145.3c9,39.2,58,71.2,58,71.2s-88,12-134.23-17a215.91,215.91,0,0,1-84.27,17C894.93,735,798,638.07,798,518.5S894.93,302,1014.5,302,1231,398.93,1231,518.5Z"/></clipPath></defs><g class="b"><path class="c" d="M1231,518.5a215.71,215.71,0,0,1-56,145.3c9,39.2,58,71.2,58,71.2s-88,12-134.23-17a215.91,215.91,0,0,1-84.27,17C894.93,735,798,638.07,798,518.5S894.93,302,1014.5,302,1231,398.93,1231,518.5Z" transform="translate(-794.5 -298.5)"/><path class="d" d="M214.19,304h14.62A109.19,109.19,0,0,1,338,413.19V515a0,0,0,0,1,0,0H105a0,0,0,0,1,0,0V413.19A109.19,109.19,0,0,1,214.19,304Z"/><path class="e" d="M189.5,293.5h62a0,0,0,0,1,0,0v20a31,31,0,0,1-31,31h0a31,31,0,0,1-31-31v-20A0,0,0,0,1,189.5,293.5Z"/><path class="f" d="M902.5,453.5s-5-88,117-88,109,88,109,88" transform="translate(-794.5 -298.5)"/><path class="g" d="M902.5,542.37V466.13a52.79,52.79,0,0,1,52.63-52.63h120.74a52.79,52.79,0,0,1,52.63,52.63v76.24C1128.49,614.16,902.49,610.76,902.5,542.37Z" transform="translate(-794.5 -298.5)"/><path class="f" d="M108,155h0a0,0,0,0,1,0,0v85a0,0,0,0,1,0,0h0a35,35,0,0,1-35-35V190A35,35,0,0,1,108,155Z"/><path class="f" d="M1163.5,453.5h0a0,0,0,0,1,0,0v85a0,0,0,0,1,0,0h0a35,35,0,0,1-35-35v-15A35,35,0,0,1,1163.5,453.5Z" transform="translate(1497.5 693.5) rotate(180)"/><line class="f" x1="108" y1="155" x2="108" y2="75"/><line class="f" x1="334" y1="155" x2="334" y2="75"/><circle class="h" cx="108.5" cy="69.5" r="14.5"/><circle class="h" cx="333.5" cy="69.5" r="14.5"/><rect class="i" x="140.5" y="155.5" width="161" height="62" rx="31"/><circle class="j" cx="173.5" cy="187.5" r="12"/><circle class="j" cx="268" cy="188" r="12"/><path class="j" d="M998.5,486.5h38s0,18-21,18C1001.5,504.5,998.5,486.5,998.5,486.5Z" transform="translate(-794.5 -298.5)"/></g></svg>